HIERARCHY
ROOT Hips
{
	OFFSET -0.001795 -0.223333 0.028219
	CHANNELS 6 Xposition Yposition Zposition Zrotation Yrotation Xrotation 
	JOINT LeftUpLeg
	{
		OFFSET 0.069520 -0.091406 -0.006815
		CHANNELS 3 Zrotation Yrotation Xrotation
		JOINT LeftLeg
		{
			OFFSET 0.034277 -0.375199 -0.004496
			CHANNELS 3 Zrotation Yrotation Xrotation
			JOINT LeftFoot
			{
				OFFSET -0.013596 -0.397961 -0.043693
				CHANNELS 3 Zrotation Yrotation Xrotation
				JOINT LeftToe
				{
					OFFSET 0.026358 -0.055791 0.119288
					CHANNELS 3 Zrotation Yrotation Xrotation
					End Site
					{
						OFFSET 0.000000 0.000000 0.000000
					}
				}
			}
		}
	}
	JOINT RightUpLeg
	{
		OFFSET -0.067670 -0.090522 -0.004320
		CHANNELS 3 Zrotation Yrotation Xrotation
		JOINT RightLeg
		{
			OFFSET -0.038290 -0.382569 -0.008850
			CHANNELS 3 Zrotation Yrotation Xrotation
			JOINT RightFoot
			{
				OFFSET 0.015774 -0.398415 -0.042312
				CHANNELS 3 Zrotation Yrotation Xrotation
				JOINT RightToe
				{
					OFFSET -0.025372 -0.048144 0.123348
					CHANNELS 3 Zrotation Yrotation Xrotation
					End Site
					{
						OFFSET 0.000000 0.000000 0.000000
					}
				}
			}
		}
	}
	JOINT Spine
	{
		OFFSET -0.002533 0.108963 -0.026696
		CHANNELS 3 Zrotation Yrotation Xrotation
		JOINT Spine1
		{
			OFFSET 0.005487 0.135180 0.001092
			CHANNELS 3 Zrotation Yrotation Xrotation
			JOINT Spine2
			{
				OFFSET 0.001457 0.052922 0.025425
				CHANNELS 3 Zrotation Yrotation Xrotation
				JOINT Neck
				{
					OFFSET -0.002778 0.213870 -0.042857
					CHANNELS 3 Zrotation Yrotation Xrotation
					JOINT Head
					{
						OFFSET 0.005152 0.064970 0.051349
						CHANNELS 3 Zrotation Yrotation Xrotation
						End Site
						{
							OFFSET 0.000000 0.000000 0.000000
						}
					}
				}
				JOINT LeftShoulder
				{
					OFFSET 0.078845 0.121749 -0.034090
					CHANNELS 3 Zrotation Yrotation Xrotation
					JOINT LeftArm
					{
						OFFSET 0.090977 0.030469 -0.008868
						CHANNELS 3 Zrotation Yrotation Xrotation
						JOINT LeftForeArm
						{
							OFFSET 0.259612 -0.012772 -0.027456
							CHANNELS 3 Zrotation Yrotation Xrotation
							JOINT LeftHand
							{
								OFFSET 0.249234 0.008986 -0.001171
								CHANNELS 3 Zrotation Yrotation Xrotation
								End Site
								{
									OFFSET 0.000000 0.000000 0.000000
								}
							}
						}
					}
				}
				JOINT RightShoulder
				{
					OFFSET -0.081759 0.118833 -0.038615
					CHANNELS 3 Zrotation Yrotation Xrotation
					JOINT RightArm
					{
						OFFSET -0.096012 0.032551 -0.009143
						CHANNELS 3 Zrotation Yrotation Xrotation
						JOINT RightForeArm
						{
							OFFSET -0.253742 -0.013329 -0.021401
							CHANNELS 3 Zrotation Yrotation Xrotation
							JOINT RightHand
							{
								OFFSET -0.255298 0.007772 -0.005559
								CHANNELS 3 Zrotation Yrotation Xrotation
								End Site
								{
									OFFSET 0.000000 0.000000 0.000000
								}
							}
						}
					}
				}
			}
		}
	}
}
MOTION
Frames: 17
Frame Time: 0.050000
-0.043566 0.942668 -0.007679 -0.697291 -5.035686 3.698544 3.947434 -0.063112 -0.393869 -0.475119 0.146829 -3.091452 5.232863 12.228004 8.796875 0.000000 0.000000 0.000000 -4.932296 0.386487 -3.160596 0.649364 -0.015834 1.249728 -6.509359 -17.171839 9.218449 0.000000 0.000000 0.000000 9.080300 0.989273 -8.857817 -7.632604 2.546238 -19.702704 -2.093107 18.094014 26.772685 15.196089 -3.069384 -34.182827 0.000000 0.000000 0.000000 -15.663368 -24.070808 7.550322 -57.295804 2.678012 -9.698600 -47.871685 -78.885211 40.292956 0.000000 0.000000 0.000000 16.378257 12.444241 8.922751 65.934841 51.345208 25.300051 -129.119549 46.742048 -61.991941 0.000000 0.000000 0.000000 
-0.044530 0.942424 -0.008129 -0.994960 -4.492224 3.590023 4.563863 -0.054546 -0.118147 -0.825204 0.180602 -3.177040 5.274260 12.342680 8.843070 0.000000 0.000000 0.000000 -4.632688 0.373522 -3.134278 0.897498 -0.035471 1.474351 -6.206306 -16.610841 9.465094 0.000000 0.000000 0.000000 9.042711 0.924403 -8.435256 -7.568782 2.524353 -19.951999 -2.350603 17.336354 26.741038 14.182119 -2.715056 -33.638529 0.000000 0.000000 0.000000 -16.315433 -24.975122 8.127888 -57.161603 -2.184475 -7.352835 -61.230985 -85.205204 57.577116 0.000000 0.000000 0.000000 19.390604 10.166519 8.347703 63.845097 40.508929 15.817584 -131.580680 53.383261 -73.982574 0.000000 0.000000 0.000000 
-0.045882 0.942649 -0.008396 -1.156189 -3.620945 3.851217 4.735446 -0.083095 -0.411664 -0.427676 0.138928 -2.999596 4.688361 11.481906 9.469830 0.000000 0.000000 0.000000 -4.104178 0.343307 -2.860807 0.356401 0.015009 1.299420 -6.119432 -16.395875 9.452248 0.000000 0.000000 0.000000 8.616680 0.859836 -8.322081 -7.405705 2.497933 -19.801860 -2.789142 15.825814 26.051851 13.812609 -2.865012 -32.517792 0.000000 0.000000 0.000000 -17.079285 -24.449366 8.125585 -55.699648 -8.613952 -4.108560 173.165848 -84.972279 -171.535351 0.000000 0.000000 0.000000 22.514396 8.381760 7.752591 62.796035 28.233548 7.111016 -125.832339 59.926551 -76.762228 0.000000 0.000000 0.000000 
-0.047058 0.942930 -0.008556 -1.585388 -1.854127 3.841495 5.711577 -0.131497 -0.876338 -0.213210 0.094329 -2.216760 4.141670 10.595756 8.920513 0.000000 0.000000 0.000000 -3.477774 0.297003 -2.493495 0.498009 -0.010985 1.086066 -6.614732 -17.281083 10.216447 0.000000 0.000000 0.000000 8.295265 0.749492 -7.794693 -6.969581 2.404061 -19.831161 -2.965659 14.003541 25.443358 12.140023 -2.179758 -31.938135 0.000000 0.000000 0.000000 -16.263726 -25.800906 8.951025 -56.103030 -18.110774 0.262941 145.733568 -74.916149 -134.494617 0.000000 0.000000 0.000000 25.131394 6.312048 6.815658 63.434396 16.403100 0.006771 -117.134996 67.448184 -77.279285 0.000000 0.000000 0.000000 
-0.048051 0.942775 -0.008844 -1.683326 -0.597556 4.042179 6.173690 -0.195855 -1.980814 0.122258 0.015602 -0.831255 3.275241 9.395546 9.767195 0.000000 0.000000 0.000000 -3.161184 0.237715 -1.812719 0.587013 -0.062791 -0.061988 -7.019498 -17.944625 10.141038 0.000000 0.000000 0.000000 8.053687 0.619127 -6.971148 -7.321128 2.479946 -20.807530 -2.428138 12.533897 25.832622 11.500349 -1.882698 -32.470751 0.000000 0.000000 0.000000 -14.323075 -26.946626 9.601077 -55.900574 -28.387135 4.980370 145.978510 -63.568023 -124.634148 0.000000 0.000000 0.000000 27.764108 3.733784 5.450515 64.079804 7.797442 -5.094742 -106.378984 71.953107 -71.917723 0.000000 0.000000 0.000000 
-0.048717 0.942731 -0.009022 -1.615007 0.987292 4.056306 6.148972 -0.236355 -2.506850 0.354296 -0.012744 -0.670061 2.310320 7.684332 8.889580 0.000000 0.000000 0.000000 -2.912090 0.181029 -1.219829 0.626974 -0.071238 -0.127792 -7.372130 -18.502797 9.918448 0.000000 0.000000 0.000000 7.156403 0.466434 -6.042998 -6.820222 2.383628 -20.520444 -2.826647 9.669118 24.743716 10.523667 -1.640437 -32.505727 0.000000 0.000000 0.000000 -13.056819 -28.344159 10.551178 -54.199420 -36.716947 8.849663 143.072830 -55.619309 -111.066818 0.000000 0.000000 0.000000 29.393541 3.442778 4.730701 64.834388 1.376482 -8.524030 -99.286205 74.366763 -69.199047 0.000000 0.000000 0.000000 
-0.049070 0.942247 -0.009211 -1.812144 0.689987 4.387867 6.695975 -0.243362 -2.674963 0.007068 0.028559 -0.859315 2.446289 8.103348 9.714724 0.000000 0.000000 0.000000 -2.431605 0.203295 -1.576607 0.584395 -0.064637 -0.079994 -7.743372 -19.215528 10.186777 0.000000 0.000000 0.000000 6.903661 0.431158 -5.809774 -6.445646 2.252820 -21.095974 -2.699441 8.671395 25.399600 10.418535 -1.588971 -33.867225 0.000000 0.000000 0.000000 -12.736072 -29.691654 11.437424 -52.330234 -40.113331 10.041018 146.380853 -51.275481 -109.888748 0.000000 0.000000 0.000000 30.835142 2.496655 3.732551 66.181784 -1.875547 -10.482975 -109.220318 76.840493 -82.126699 0.000000 0.000000 0.000000 
-0.049306 0.942143 -0.009324 -1.707135 -1.260816 4.875687 6.299916 -0.249410 -3.388669 0.140403 -0.003312 -0.348634 3.485544 9.659072 9.632591 0.000000 0.000000 0.000000 -2.613028 0.236966 -1.829066 0.511130 -0.059858 -0.224783 -6.571281 -17.053271 8.850823 0.000000 0.000000 0.000000 6.531966 0.372569 -5.249564 -5.984100 2.075048 -21.617553 -2.294905 8.557913 25.005174 10.691228 -1.705199 -35.258150 0.000000 0.000000 0.000000 -12.891877 -28.207465 11.079238 -51.484746 -38.100772 8.912247 150.887295 -51.734077 -116.764247 0.000000 0.000000 0.000000 30.073391 3.113988 3.448984 67.011927 -0.700183 -9.714622 -123.301153 74.529166 -94.961520 0.000000 0.000000 0.000000 
-0.049266 0.941987 -0.009440 -1.959781 -3.234351 4.913811 6.403666 -0.202980 -2.882970 -0.488186 0.080897 -0.870522 4.848793 11.896283 10.373172 0.000000 0.000000 0.000000 -2.464836 0.303543 -2.632022 0.611529 -0.039086 0.574082 -6.754384 -17.518091 9.024000 0.000000 0.000000 0.000000 7.176338 0.440579 -5.555174 -5.564454 1.934704 -21.404739 -2.855285 9.074742 24.509396 11.270184 -2.120240 -34.888130 0.000000 0.000000 0.000000 -13.708762 -27.945852 11.243494 -51.390436 -30.266564 5.353308 156.620659 -57.686377 -131.917771 0.000000 0.000000 0.000000 29.369042 4.034532 3.697251 65.856427 4.523501 -6.597498 -136.986021 70.960372 -106.875390 0.000000 0.000000 0.000000 
-0.049069 0.942110 -0.009501 -2.175445 -6.408143 4.866178 5.850847 -0.140293 -2.184048 -0.109514 0.027932 -0.463529 6.527757 14.499721 11.535403 0.000000 0.000000 0.000000 -2.350976 0.345605 -3.082934 0.675359 -0.023541 1.031379 -5.958961 -16.167802 8.812867 0.000000 0.000000 0.000000 7.864071 0.488022 -5.475932 -5.171797 1.767493 -21.555634 -3.084352 10.398876 24.374913 12.763798 -2.906491 -34.994225 0.000000 0.000000 0.000000 -16.039926 -26.393502 11.010800 -51.024956 -19.269837 0.520168 174.138876 -69.131606 -165.285433 0.000000 0.000000 0.000000 27.684589 5.836612 4.412724 65.057526 12.759389 -1.779604 -147.993164 64.691244 -114.731125 0.000000 0.000000 0.000000 
-0.048902 0.942269 -0.009661 -2.652912 -8.963044 4.662348 5.758402 -0.082744 -1.693889 0.012146 0.007896 -0.267583 7.935470 16.603504 11.303147 0.000000 0.000000 0.000000 -2.286578 0.370569 -3.347949 0.923824 -0.032186 1.303516 -5.375351 -15.288748 9.135169 0.000000 0.000000 0.000000 8.695058 0.582234 -5.657159 -4.696796 1.596230 -20.735368 -3.442609 11.770541 23.992641 14.003812 -3.534806 -34.941674 0.000000 0.000000 0.000000 -18.116939 -26.193827 11.277245 -51.358917 -10.048688 -3.307087 -131.456240 -79.166288 127.539186 0.000000 0.000000 0.000000 26.189831 8.386256 5.739421 61.542226 22.112566 3.299769 -147.668138 56.400039 -105.730102 0.000000 0.000000 0.000000 
-0.048983 0.942247 -0.009911 -2.547395 -10.663890 4.669201 5.733531 -0.014751 -0.670145 -0.292405 0.083513 -1.600343 8.619093 17.573182 12.362274 0.000000 0.000000 0.000000 -2.144897 0.418414 -3.937049 0.016220 0.064793 1.480367 -4.575095 -13.916129 9.049648 0.000000 0.000000 0.000000 9.134469 0.689801 -6.116804 -4.637323 1.546320 -20.962192 -4.304809 12.160185 24.992397 15.485899 -4.342095 -35.257640 0.000000 0.000000 0.000000 -18.928809 -26.873300 12.041250 -51.945697 -3.411169 -6.249555 -94.551574 -76.333888 85.390573 0.000000 0.000000 0.000000 24.164357 11.139365 6.946640 59.094348 30.000558 7.299198 -145.600544 51.430010 -96.956115 0.000000 0.000000 0.000000 
-0.049708 0.942849 -0.010048 -2.620819 -12.188416 4.856257 5.436827 0.026176 -0.101652 0.063629 0.061750 -2.204414 9.288470 18.577468 12.155359 0.000000 0.000000 0.000000 -2.080140 0.429432 -4.048668 -0.040454 0.071593 1.487620 -3.968606 -12.541996 7.887678 0.000000 0.000000 0.000000 9.401911 0.698711 -5.962157 -5.065284 1.628609 -20.939289 -3.997919 12.544191 25.054238 15.801502 -4.382999 -36.299866 0.000000 0.000000 0.000000 -19.579550 -27.308446 12.598526 -51.641586 -1.492635 -7.049410 -95.357099 -74.657552 84.716940 0.000000 0.000000 0.000000 22.747212 12.359393 7.237303 57.130274 33.454869 8.818835 -143.549914 48.988716 -91.420543 0.000000 0.000000 0.000000 
-0.050993 0.942642 -0.010014 -2.983669 -12.414816 5.119456 6.438409 0.053719 0.122825 -0.561001 0.170518 -3.489078 9.380025 18.659760 12.783938 0.000000 0.000000 0.000000 -1.523298 0.451256 -4.444070 -0.666090 0.130630 1.503034 -3.170619 -11.076462 7.963431 0.000000 0.000000 0.000000 9.625826 0.816270 -6.664928 -5.160612 1.651858 -20.259243 -4.027840 12.272471 25.740132 15.516683 -4.364432 -36.200775 0.000000 0.000000 0.000000 -19.620113 -27.578826 12.915038 -51.326384 -4.156877 -5.993153 -122.745433 -74.378316 114.439708 0.000000 0.000000 0.000000 23.477271 13.264558 7.733861 54.793431 32.341034 7.553536 -140.875551 48.292422 -87.018220 0.000000 0.000000 0.000000 
-0.052569 0.943106 -0.009702 -3.053978 -12.144527 5.430870 6.571545 0.040529 -0.016746 -0.144566 0.125998 -3.429297 8.837526 17.791694 12.810001 0.000000 0.000000 0.000000 -1.705112 0.470825 -4.614004 -0.457279 0.092096 1.119929 -3.121265 -11.013362 8.096229 0.000000 0.000000 0.000000 9.585172 0.863777 -7.084975 -5.293184 1.697091 -20.047448 -3.626436 12.032942 25.978409 14.912456 -4.171974 -35.808280 0.000000 0.000000 0.000000 -19.722008 -29.273439 13.896144 -48.804793 -9.170809 -3.727845 -160.524064 -68.757701 159.216598 0.000000 0.000000 0.000000 24.263604 12.858678 7.573530 55.531513 28.138638 5.511617 -134.162778 52.556136 -84.002539 0.000000 0.000000 0.000000 
-0.053794 0.942931 -0.009111 -3.545188 -11.010164 5.383737 7.529982 0.034439 -0.085322 -0.745098 0.179901 -3.208500 8.289220 17.021507 12.086831 0.000000 0.000000 0.000000 -1.570834 0.424861 -4.131052 0.369035 -0.001487 0.673873 -3.630995 -11.864077 7.972910 0.000000 0.000000 0.000000 9.918938 0.933673 -7.506019 -5.365472 1.746106 -19.615298 -3.362976 11.523964 26.640569 13.873875 -3.671538 -35.873746 0.000000 0.000000 0.000000 -19.071661 -30.918939 14.609490 -47.704302 -17.525952 -0.462241 -178.347804 -60.683307 -173.802253 0.000000 0.000000 0.000000 26.673357 11.892093 7.400066 55.312906 22.950342 2.682995 -123.745230 57.539171 -78.027818 0.000000 0.000000 0.000000 
-0.054298 0.942110 -0.008431 -3.195269 -9.259500 5.227505 7.668572 -0.015000 -0.662522 -0.876437 0.178741 -2.749452 7.146388 15.287287 11.967461 0.000000 0.000000 0.000000 -2.196983 0.404854 -3.759441 0.923097 -0.060194 0.481289 -3.724304 -11.932782 8.021034 0.000000 0.000000 0.000000 9.400462 0.913801 -7.812075 -5.311864 1.773942 -19.713829 -3.299540 10.014874 27.322142 13.090590 -3.460403 -35.348699 0.000000 0.000000 0.000000 -17.629619 -31.873713 14.893975 -47.185587 -24.942806 2.390783 174.120799 -55.244295 -158.281119 0.000000 0.000000 0.000000 27.294895 10.365835 6.420272 57.948332 16.676545 -0.224440 -114.169134 63.115816 -74.591485 0.000000 0.000000 0.000000 
